<svg width="11" height="14" viewBox="0 0 11 14" fill="none" xmlns="http://www.w3.org/2000/svg">
<path d="M5.5 14C4.94194 14 2.28446 10.7339 1.62919 9.69353C1.6065 9.65751 1.58401 9.62182 1.56172 9.58645C0.594197 8.05121 0 7.10836 0 5.38259C0 2.40987 2.46243 0 5.5 0C8.53757 0 11 2.40987 11 5.38259C11 7.15731 10.4238 8.09714 9.41982 9.69353C8.7201 10.8062 6.05806 14 5.5 14Z" fill="white"/>
<path d="M5.5 14C4.94194 14 2.28446 10.7339 1.62919 9.69353C1.6065 9.65751 1.58401 9.62182 1.56172 9.58645C0.594197 8.05121 0 7.10836 0 5.38259C0 2.40987 2.46243 0 5.5 0C8.53757 0 11 2.40987 11 5.38259C11 7.15731 10.4238 8.09714 9.41982 9.69353C8.7201 10.8062 6.05806 14 5.5 14Z" stroke="#FF9115"/>
<path fill-rule="evenodd" clip-rule="evenodd" d="M5.5 8C4.11929 8 3 6.88071 3 5.5C3 4.11929 4.11929 3 5.5 3C6.88071 3 8 4.11929 8 5.5C8 6.88071 6.88071 8 5.5 8Z" fill="#FF9115"/>
</svg>
